<?xml version="1.0" standalone="no"?><!DOCTYPE svg PUBLIC "-//W3C//DTD SVG 1.1//EN" "http://www.w3.org/Graphics/SVG/1.1/DTD/svg11.dtd"><svg t="1686104254138" class="icon" viewBox="0 0 1024 1024" version="1.1" xmlns="http://www.w3.org/2000/svg" p-id="13651" xmlns:xlink="http://www.w3.org/1999/xlink" width="200" height="200"><path d="M0 0m0 0l1024 0q0 0 0 0l0 1024q0 0 0 0l-1024 0q0 0 0 0l0-1024q0 0 0 0Z" fill="#E4E4E4" fill-opacity="0" p-id="13652"></path><path d="M864 512h-32v-32h32v32z m-32 416h96v32h-96v-32z m128-96v128h-32v-128h32z m-288 160h160v32h-160v-32z m224 0h-256v-32h256v32z m-288 0v-64h32v64h-32z m-32-32v-64h32v64h-32z m-32 0v-128h32v128h-32z m0-288v-64h32v64h-32z m0-64v288h-32v-288h32z m-64 288V576h32v320h-32z m-32-224v-96h32v96h-32z m-32-64v-64h32v64h-32z m-32-32v-64h32v64h-32z m-32 0v-96h32v96h-32z m-32-32v-96h32v96h-32z m-256 128v-128h32v128H64z m32-64v-64h32v64H96z m32-32v-64h32v64H128z m160-32v-128h32v128H288z m192 288v96h-32v-96h32z m0 128h-128v-32h128v32z m-128 64H192v-32h160v32z m64-32H128v-32h288v32z m-224-32H128v-32h64v32z m-96 0v-64h32v64H96z m-32 0v-128h32v128H64z m-32-64v-288h32v288H32z m-32-64v-160h32v160H0z m1024-160v160h-32v-160h32z m-64 224v-256h32v256h-32z m32-256h-64v-32h64v32z m-32-32h-64v-32h64v32z m0-32h-128v-32h128v32z m-64-32H544v-32h352v32z m-96-32H480v-32h320v32z m0-32H448v-32h352v32z m32-32H416v-32h416v32z m-384-32h-64v-32h64v32z m-64-32h-32v-32h32v32z m480 96v-160h32v160h-32z m0-224v192h-32V256h32z m-64 64V256h32v64h-32z m64-64h-96V224h96v32z m-32-32h-96V192h96v32z m-32-32h-96V160h96v32z m-32-32h-128V128h128v32z m-32-32H320V96h416v32zM352 64h-32V32h32v32z m288 32H320V64h320v32zM288 128V0h32v128H288zM256 64V0h32v64H256zM224 64V0h32v64H224z m0-64v544H192V0h32zM160 576V32h32v544H160z" fill="#0A0F09" p-id="13653"></path><path d="M608 608h-64v-32h64v32z m-32-32h-96v-32h96v32z m-64-32h-64v-32h64v32z m-96-32v-32h32v32h-32z m-32 0v-64h32v64h-32z m-32-32v-64h32v64h-32z m-32-64v-64h32v64h-32z m-32-32V224h32v160H288z m0-288v448H256V96h32zM224 544V96h32v448H224z" fill="#21A919" p-id="13654"></path><path d="M448 384h384v32H448v-32z m384 0H384v-32h448v32z m-512-64h512v32H320v-32z m480 0H320V288h480v32zM320 256h480v32H320V256z m448 0H320V224h448v32zM288 192h448v32H288V192z m416 0H288V160h416v32zM288 96H256V64h32v32z m320 64H288V128h320v32z" fill="#198017" p-id="13655"></path><path d="M288 384h32v32H288v-32z m32 32h32v32h-32v-32z m32-32h32v32h-32v-32z m32 32h32v32h-32v-32z m32 32h32v32h-32v-32z m32 32h32v32h-32v-32z m-32 32h32v32h-32v-32z m32 32h32v32h-32v-32z m64 32h32v32h-32v-32z m64-32h32v32h-32v-32z m-64-32h32v32h-32v-32z" fill="#197F1B" p-id="13656"></path><path d="M672 576v-32h32v32h-32z m128 0v-32h32v32h-32z m64 32v-32h32v32h-32z m32 32v-32h32v32h-32z m32 96v-64h32v64h-32z m0 96v-64h32v64h-32z m-64 96v-32h32v32h-32z m32-32v-32h32v32h-32z m-64 64h-64v-32h64v32z m-96 0h-64v-32h64v32z m-128-32v-32h32v32h-32z m-32-32v-32h32v32h-32z m-32-64v-32h32v32h-32z m0-96v-64h32v64h-32zM96 640v-32h32v32H96z m32-32v-32h32v32H128z m64-32v-32h32v32H192z m128 0v-32h32v32h-32z m64 32v-32h32v32h-32z m32 32v-32h32v32h-32z m32 64v-32h32v32h-32z m0 128v-32h32v32h-32z m-32 64v-32h32v32h-32z m-32 32v-32h32v32h-32z m-64 32v-32h32v32h-32z m-128 0v-32h32v32H192z m-64-32v-32h32v32H128z m-32-32v-32h32v32H96z m-32-64v-32h32v32H64z m0-96v-64h32v64H64z" fill="#700F1A" p-id="13657"></path><path d="M768 544h32v32h-32v-32z m0 32h64v32h-64v-32z m96 0v64h-32v-64h32z m64 192v-32h32v32h-32z m-32 96v-224h32v224h-32z m0-256v288h-32v-288h32z m-64 128v192h-32v-192h32z m0 192v-224h32v224h-32z m-32-192v192h-32v-192h32z m-32-192v96h-32v-96h32z m0 160v256h-32v-256h32z m-64 224V544h32v384h-32z m0-352v352h-32V576h32z m-64 352V576h32v352h-32z m0-320v288h-32v-288h32z m-96 192v-64h32v64h-32z m32 64v-224h32v224h-32zM64 800v-64h32v64H64z m64-160v224H96v-224h32z m0 256v-256h32v256H128z m64-256v288H160v-288h32z m0 288v-288h32v288H192z m64-288v320H224V640h32z m32 64v256H256v-256h32z m0 256v-224h32v224H288z m64-224v192h-32v-192h32z m0 192v-224h32v224h-32z m128-224v96h-32v-96h32z m-32-64v224h-32v-224h32z m-64 256v-256h32v256h-32z m32-256h-64v-32h64v32z m-128 0H128v-32h160v32z m96-32H160v-32h224v32z m-64-32H224v-32h96v32z" fill="#B71425" p-id="13658"></path><path d="M768 608h64v32h-64v-32z m0 96h64v32h-64v-32z m-32-32h128v32h-128v-32z m128 0h-128v-32h128v32z m-512-32H288v-32h64v32z m-96 0h128v32H256v-32z m128 64H256v-32h128v32z m-96 0h64v32H288v-32z" fill="#EE505E" p-id="13659"></path><path d="M224 96V64h32v32H224z m384 64V128h32v32h-32z m256 288v32h-32v-32h32z m-64 64v-64h32v64h-32z m-192 64v-32h32v32h-32z" fill="#254A29" p-id="13660"></path><path d="M576 640v-32h32v32h-32z m32-32v-32h32v32h-32z" fill="#813B17" p-id="13661"></path><path d="M928 672v-32h32v32h-32z m-288-96v-32h32v32h-32z m-224 352v-32h32v32h-32z m224 48V928h32v48h-32z m256-48v-32h32v32h-32z" fill="#6F0F13" p-id="13662"></path></svg>